<mxfile host="app.diagrams.net" agent="Mozilla/5.0 (Windows NT 10.0; Win64; x64) AppleWebKit/537.36 (KHTML, like Gecko) Chrome/128.0.0.0 Safari/537.36" version="24.7.8">
  <diagram id="C5RBs43oDa-KdzZeNtuy" name="Page-1">
    <mxGraphModel dx="700" dy="389" grid="1" gridSize="10" guides="1" tooltips="1" connect="1" arrows="1" fold="1" page="1" pageScale="1" pageWidth="827" pageHeight="1169" math="0" shadow="0">
      <root>
        <mxCell id="WIyWlLk6GJQsqaUBKTNV-0" />
        <mxCell id="WIyWlLk6GJQsqaUBKTNV-1" parent="WIyWlLk6GJQsqaUBKTNV-0" />
        <mxCell id="Ev9XdaTyHa1Z8E6Ce04j-0" value="mulai" style="ellipse;whiteSpace=wrap;html=1;" vertex="1" parent="WIyWlLk6GJQsqaUBKTNV-1">
          <mxGeometry x="175" y="90" width="90" height="40" as="geometry" />
        </mxCell>
        <mxCell id="Ev9XdaTyHa1Z8E6Ce04j-1" value="login" style="shape=display;whiteSpace=wrap;html=1;" vertex="1" parent="WIyWlLk6GJQsqaUBKTNV-1">
          <mxGeometry x="180" y="170" width="80" height="40" as="geometry" />
        </mxCell>
        <mxCell id="Ev9XdaTyHa1Z8E6Ce04j-7" value="memasukkan username &amp;amp; password" style="shape=parallelogram;perimeter=parallelogramPerimeter;whiteSpace=wrap;html=1;fixedSize=1;" vertex="1" parent="WIyWlLk6GJQsqaUBKTNV-1">
          <mxGeometry x="170" y="280" width="110" height="50" as="geometry" />
        </mxCell>
        <mxCell id="Ev9XdaTyHa1Z8E6Ce04j-8" value="verifikasi data" style="rounded=0;whiteSpace=wrap;html=1;" vertex="1" parent="WIyWlLk6GJQsqaUBKTNV-1">
          <mxGeometry x="165" y="390" width="105" height="40" as="geometry" />
        </mxCell>
        <mxCell id="Ev9XdaTyHa1Z8E6Ce04j-12" value="berhasil" style="rhombus;whiteSpace=wrap;html=1;" vertex="1" parent="WIyWlLk6GJQsqaUBKTNV-1">
          <mxGeometry x="177.5" y="490" width="80" height="80" as="geometry" />
        </mxCell>
        <mxCell id="Ev9XdaTyHa1Z8E6Ce04j-14" style="edgeStyle=orthogonalEdgeStyle;rounded=0;orthogonalLoop=1;jettySize=auto;html=1;exitX=1;exitY=0.5;exitDx=0;exitDy=0;entryX=1;entryY=0.5;entryDx=0;entryDy=0;entryPerimeter=0;" edge="1" parent="WIyWlLk6GJQsqaUBKTNV-1" source="Ev9XdaTyHa1Z8E6Ce04j-12" target="Ev9XdaTyHa1Z8E6Ce04j-1">
          <mxGeometry relative="1" as="geometry">
            <Array as="points">
              <mxPoint x="330" y="530" />
              <mxPoint x="330" y="190" />
            </Array>
          </mxGeometry>
        </mxCell>
        <mxCell id="Ev9XdaTyHa1Z8E6Ce04j-17" value="" style="line;strokeWidth=2;direction=south;html=1;" vertex="1" parent="WIyWlLk6GJQsqaUBKTNV-1">
          <mxGeometry x="215" y="130" width="10" height="40" as="geometry" />
        </mxCell>
        <mxCell id="Ev9XdaTyHa1Z8E6Ce04j-18" value="" style="line;strokeWidth=2;direction=south;html=1;" vertex="1" parent="WIyWlLk6GJQsqaUBKTNV-1">
          <mxGeometry x="215" y="210" width="10" height="70" as="geometry" />
        </mxCell>
        <mxCell id="Ev9XdaTyHa1Z8E6Ce04j-19" value="" style="line;strokeWidth=2;direction=south;html=1;" vertex="1" parent="WIyWlLk6GJQsqaUBKTNV-1">
          <mxGeometry x="215" y="330" width="10" height="60" as="geometry" />
        </mxCell>
        <mxCell id="Ev9XdaTyHa1Z8E6Ce04j-20" value="" style="line;strokeWidth=2;direction=south;html=1;" vertex="1" parent="WIyWlLk6GJQsqaUBKTNV-1">
          <mxGeometry x="212.5" y="430" width="10" height="60" as="geometry" />
        </mxCell>
        <mxCell id="Ev9XdaTyHa1Z8E6Ce04j-22" value="tidak" style="text;html=1;align=center;verticalAlign=middle;whiteSpace=wrap;rounded=0;" vertex="1" parent="WIyWlLk6GJQsqaUBKTNV-1">
          <mxGeometry x="270" y="510" width="40" height="10" as="geometry" />
        </mxCell>
        <mxCell id="Ev9XdaTyHa1Z8E6Ce04j-24" value="halaman presensi" style="shape=display;whiteSpace=wrap;html=1;" vertex="1" parent="WIyWlLk6GJQsqaUBKTNV-1">
          <mxGeometry x="177.5" y="610" width="80" height="40" as="geometry" />
        </mxCell>
        <mxCell id="Ev9XdaTyHa1Z8E6Ce04j-25" value="" style="line;strokeWidth=2;direction=south;html=1;" vertex="1" parent="WIyWlLk6GJQsqaUBKTNV-1">
          <mxGeometry x="212.5" y="570" width="10" height="40" as="geometry" />
        </mxCell>
        <mxCell id="Ev9XdaTyHa1Z8E6Ce04j-26" value="ya" style="text;html=1;align=center;verticalAlign=middle;whiteSpace=wrap;rounded=0;" vertex="1" parent="WIyWlLk6GJQsqaUBKTNV-1">
          <mxGeometry x="222.5" y="585" width="40" height="10" as="geometry" />
        </mxCell>
      </root>
    </mxGraphModel>
  </diagram>
</mxfile>
